<?xml version="1.0" encoding="utf-8"?>
<!-- Generator: Adobe Illustrator 22.1.0, SVG Export Plug-In . SVG Version: 6.00 Build 0)  -->
<svg version="1.1" id="Ebene_1" xmlns="http://www.w3.org/2000/svg" xmlns:xlink="http://www.w3.org/1999/xlink" x="0px" y="0px"
	 viewBox="0 0 113 19" style="enable-background:new 0 0 113 19;" xml:space="preserve">
<style type="text/css">
	.st0{fill:#32A000;}
	.st1{fill:none;stroke:#FFFFFF;stroke-width:1.2;stroke-miterlimit:10;}
	.st2{fill:none;stroke:#FFFFFF;stroke-miterlimit:10;}
	.st3{fill:#FFFFFF;}
</style>
<g>
	<path class="st0" d="M103.4,19H9.7C4.3,19,0,14.8,0,9.5l0,0C-0.1,4.3,4.2,0,9.6,0h93.7c5.3,0,9.7,4.2,9.7,9.4v0.1
		C113.1,14.8,108.8,19,103.4,19z"/>
</g>
<g>
	<circle class="st1" cx="9.5" cy="9.5" r="6"/>
	<ellipse class="st2" cx="9.5" cy="9.5" rx="2" ry="6"/>
	<line class="st2" x1="3.5" y1="9.5" x2="15.5" y2="9.5"/>
</g>
<g>
	<path class="st3" d="M27.6,12.2c0-0.3-0.1-0.5-0.4-0.7c-0.2-0.1-0.6-0.3-1.2-0.4c-0.5-0.1-1-0.3-1.4-0.4c-0.8-0.4-1.2-0.9-1.2-1.7
		c0-0.6,0.3-1.1,0.8-1.5c0.5-0.4,1.2-0.6,2-0.6c0.9,0,1.5,0.2,2.1,0.6c0.5,0.4,0.8,1,0.8,1.6h-1.6c0-0.3-0.1-0.6-0.3-0.8
		S26.6,8,26.2,8c-0.4,0-0.6,0.1-0.9,0.2C25.2,8.5,25,8.7,25,8.9c0,0.2,0.1,0.4,0.3,0.6c0.2,0.1,0.6,0.3,1.3,0.4s1.1,0.3,1.5,0.5
		c0.4,0.2,0.6,0.4,0.8,0.7c0.2,0.3,0.3,0.6,0.3,1c0,0.6-0.3,1.2-0.8,1.6s-1.2,0.6-2.1,0.6c-0.6,0-1.1-0.1-1.6-0.3
		c-0.5-0.2-0.8-0.5-1.1-0.9c-0.3-0.4-0.4-0.8-0.4-1.2h1.6c0,0.4,0.2,0.7,0.4,0.9s0.6,0.3,1,0.3c0.4,0,0.7-0.1,1-0.2
		C27.5,12.6,27.6,12.4,27.6,12.2z"/>
	<path class="st3" d="M33.8,11.8L35.3,7H37l-2.8,8.2C33.7,16.4,33,17,31.9,17c-0.2,0-0.5,0-0.8-0.1v-1.2l0.3,0
		c0.4,0,0.7-0.1,0.9-0.2c0.2-0.1,0.4-0.4,0.5-0.7l0.2-0.6L30.6,7h1.7L33.8,11.8z"/>
	<path class="st3" d="M40.3,7l0,0.8c0.5-0.6,1.2-1,2.1-1c1.5,0,2.2,0.8,2.3,2.5v4.7H43V9.5c0-0.5-0.1-0.8-0.3-1
		c-0.2-0.2-0.5-0.3-1-0.3c-0.6,0-1.1,0.3-1.4,0.9v5.1h-1.6V7H40.3z"/>
	<path class="st3" d="M50.2,13c0.4,0,0.7-0.1,1-0.3c0.3-0.2,0.4-0.5,0.4-0.9h1.5c0,0.4-0.2,0.9-0.4,1.2c-0.3,0.4-0.6,0.7-1.1,0.9
		s-0.9,0.3-1.4,0.3c-1,0-1.8-0.3-2.4-1c-0.6-0.6-0.9-1.5-0.9-2.7v-0.2c0-1.1,0.3-2,0.9-2.6c0.6-0.7,1.4-1,2.4-1
		c0.8,0,1.5,0.2,2.1,0.7c0.5,0.5,0.8,1.1,0.8,1.9h-1.5c0-0.4-0.2-0.7-0.4-1c-0.3-0.3-0.6-0.4-1-0.4c-0.5,0-0.9,0.2-1.2,0.6
		c-0.3,0.4-0.4,0.9-0.4,1.7v0.3c0,0.8,0.1,1.3,0.4,1.7S49.7,13,50.2,13z"/>
	<path class="st3" d="M58.3,14.2c-1,0-1.8-0.3-2.5-1c-0.6-0.6-0.9-1.5-0.9-2.5v-0.2c0-0.7,0.1-1.3,0.4-1.9c0.3-0.6,0.7-1,1.2-1.3
		s1-0.5,1.7-0.5c1,0,1.7,0.3,2.2,0.9c0.5,0.6,0.8,1.5,0.8,2.6V11h-4.7c0,0.6,0.2,1.1,0.6,1.4c0.3,0.3,0.8,0.5,1.3,0.5
		c0.7,0,1.3-0.3,1.8-0.9l0.9,0.8c-0.3,0.4-0.7,0.8-1.1,1C59.4,14.1,58.9,14.2,58.3,14.2z M58.1,8.1c-0.4,0-0.8,0.2-1.1,0.5
		c-0.3,0.3-0.4,0.7-0.5,1.3h3V9.8c0-0.5-0.2-0.9-0.4-1.2C58.9,8.3,58.5,8.1,58.1,8.1z"/>
	<path class="st3" d="M63,10.5c0-1.1,0.3-2,0.8-2.6s1.2-1,2-1c0.8,0,1.4,0.3,1.8,0.8V4h1.6v10.1h-1.4l-0.1-0.7
		c-0.5,0.6-1.1,0.9-1.9,0.9c-0.8,0-1.5-0.3-2-1S63,11.6,63,10.5z M64.6,10.6c0,0.7,0.1,1.3,0.4,1.7s0.7,0.6,1.2,0.6
		c0.7,0,1.1-0.3,1.4-0.9V9c-0.3-0.6-0.8-0.9-1.4-0.9c-0.5,0-0.9,0.2-1.2,0.6C64.7,9.2,64.6,9.8,64.6,10.6z"/>
	<path class="st3" d="M76.4,14.1V8.2h-1.1V7h1.1V6.3c0-0.8,0.2-1.4,0.7-1.8c0.4-0.4,1.1-0.6,1.8-0.6c0.3,0,0.6,0,0.9,0.1l0,1.3
		c-0.2,0-0.4-0.1-0.6-0.1c-0.8,0-1.1,0.4-1.1,1.2V7h1.4v1.2H78v5.9H76.4z"/>
	<path class="st3" d="M81.4,5.1c0-0.2,0.1-0.4,0.2-0.6c0.2-0.2,0.4-0.2,0.7-0.2c0.3,0,0.5,0.1,0.7,0.2s0.2,0.4,0.2,0.6
		c0,0.2-0.1,0.4-0.2,0.6S82.6,6,82.3,6c-0.3,0-0.5-0.1-0.7-0.2C81.5,5.6,81.4,5.4,81.4,5.1z M83.1,14.1h-1.6V7h1.6V14.1z"/>
	<path class="st3" d="M88.5,14.2c-1,0-1.8-0.3-2.5-1c-0.6-0.6-0.9-1.5-0.9-2.5v-0.2c0-0.7,0.1-1.3,0.4-1.9c0.3-0.6,0.7-1,1.2-1.3
		s1-0.5,1.7-0.5c1,0,1.7,0.3,2.2,0.9c0.5,0.6,0.8,1.5,0.8,2.6V11h-4.7c0,0.6,0.2,1.1,0.6,1.4c0.3,0.3,0.8,0.5,1.3,0.5
		c0.7,0,1.3-0.3,1.8-0.9l0.9,0.8c-0.3,0.4-0.7,0.8-1.1,1C89.6,14.1,89.1,14.2,88.5,14.2z M88.3,8.1c-0.4,0-0.8,0.2-1.1,0.5
		c-0.3,0.3-0.4,0.7-0.5,1.3h3V9.8c0-0.5-0.2-0.9-0.4-1.2C89.1,8.3,88.7,8.1,88.3,8.1z"/>
	<path class="st3" d="M94.9,14.1h-1.6V4h1.6V14.1z"/>
	<path class="st3" d="M97.3,10.5c0-1.1,0.3-2,0.8-2.6s1.2-1,2-1c0.8,0,1.4,0.3,1.8,0.8V4h1.6v10.1h-1.4l-0.1-0.7
		c-0.5,0.6-1.1,0.9-1.9,0.9c-0.8,0-1.5-0.3-2-1S97.3,11.6,97.3,10.5z M98.9,10.6c0,0.7,0.1,1.3,0.4,1.7s0.7,0.6,1.2,0.6
		c0.7,0,1.1-0.3,1.4-0.9V9c-0.3-0.6-0.8-0.9-1.4-0.9c-0.5,0-0.9,0.2-1.2,0.6C99.1,9.2,98.9,9.8,98.9,10.6z"/>
</g>
</svg>
